<svg width="38" height="37" viewBox="0 0 38 37" fill="none" xmlns="http://www.w3.org/2000/svg">
<g clip-path="url(#clip0_2_23)">
<path d="M28.1279 34.6933C27.9903 34.7662 28.0019 34.7893 28.1337 34.7222C28.1765 34.7049 28.2123 34.6806 28.2435 34.6517C28.2435 34.6274 28.2435 34.6274 28.1279 34.6933ZM28.4054 34.543C28.3395 34.5974 28.3395 34.5974 28.4181 34.5615C28.4598 34.5372 28.4968 34.5141 28.4968 34.5072C28.4968 34.4759 28.4783 34.4829 28.4054 34.543ZM28.5858 34.4343C28.5199 34.4887 28.5199 34.4887 28.5985 34.4528C28.6413 34.4285 28.6771 34.4031 28.6771 34.3973C28.6771 34.3684 28.6586 34.3742 28.5858 34.4343ZM28.7685 34.3268C28.7026 34.3811 28.7026 34.3811 28.7789 34.3441C28.8217 34.321 28.8575 34.2967 28.8575 34.2898C28.8575 34.2609 28.839 34.2667 28.7685 34.3268ZM29.0148 34.1638C28.8887 34.2482 28.8448 34.3025 28.9604 34.2424C29.0379 34.195 29.1697 34.0909 29.1466 34.0909C29.0969 34.1094 29.0552 34.1406 29.0136 34.1638H29.0148ZM17.9575 0.0127557C17.8731 0.0185369 17.6199 0.0416619 17.3979 0.0601619C12.1393 0.536537 7.21945 3.36704 4.10104 7.72726C2.37707 10.1172 1.25782 12.8934 0.835793 15.8083C0.686637 16.8258 0.668137 17.1264 0.668137 18.5058C0.668137 19.8841 0.686637 20.1801 0.835793 21.1976C1.84289 28.1478 6.78701 33.9822 13.4886 36.1444C14.6946 36.5294 15.9584 36.7954 17.3979 36.9584C17.9575 37.0185 20.3776 37.0185 20.9372 36.9584C23.4254 36.6809 25.5264 36.0669 27.6053 35.0067C27.9244 34.8448 27.9845 34.802 27.9418 34.7662C26.9243 33.4238 25.9253 32.0802 24.9251 30.7251L21.9686 26.7325L18.2651 21.2461C17.0302 19.41 15.7907 17.5785 14.5316 15.7609C14.5189 15.7609 14.5027 18.1994 14.4957 21.1733C14.483 26.3822 14.483 26.5938 14.4171 26.714C14.3512 26.8586 14.2425 26.9788 14.098 27.0459C13.9835 27.1002 13.8806 27.1118 13.3337 27.1118H12.7082L12.5451 27.01C12.4434 26.9441 12.359 26.8528 12.3046 26.7453L12.226 26.5822L12.2318 19.3314L12.2445 12.0805L12.359 11.936C12.4318 11.847 12.522 11.7741 12.6238 11.7198C12.7752 11.6469 12.8354 11.6354 13.4609 11.6354C14.1951 11.6354 14.3165 11.6643 14.5096 11.8759C16.0081 14.1098 17.502 16.3494 18.9716 18.596C21.3754 22.2405 24.6569 27.2135 26.2698 29.6532L29.2032 34.0921L29.3478 33.9961C30.7572 33.0561 32.0395 31.9368 33.146 30.6603C35.477 27.9917 36.9894 24.7091 37.5016 21.2057C37.6508 20.1882 37.6693 19.8864 37.6693 18.5081C37.6693 17.1287 37.6508 16.8339 37.5016 15.8164C36.4945 8.86616 31.5504 3.03172 24.8488 0.868381C23.5954 0.471787 22.3062 0.201224 21.0008 0.0624744C20.6504 0.0266307 18.2593 -0.0161506 17.9587 0.0150682L17.9575 0.0127557ZM25.5275 11.2018C25.7021 11.285 25.8339 11.4423 25.894 11.6227C25.9253 11.7198 25.931 13.7305 25.9253 18.2595L25.9125 24.7623L24.769 23.0048L23.6185 21.2461V16.5252C23.6185 13.4646 23.6313 11.7487 23.6474 11.6643C23.7018 11.4712 23.8336 11.3093 24.0094 11.2076C24.1527 11.1347 24.2082 11.1289 24.7806 11.1289C25.3159 11.1289 25.4061 11.1347 25.5264 11.2018H25.5275Z" fill="#1E1E1E"/>
</g>
<defs>
<clipPath id="clip0_2_23">
<rect width="37" height="37" fill="white" transform="translate(0.668137)"/>
</clipPath>
</defs>
</svg>
