<svg width="38" height="37" viewBox="0 0 38 37" fill="none" xmlns="http://www.w3.org/2000/svg">
<circle cx="18.8362" cy="18.5" r="18.5" fill="#1E1E1E"/>
<g clip-path="url(#clip0_2_41)">
<path d="M27.3956 10.9127C25.3421 7.90539 21.1764 7.02088 18.1841 8.90783L12.9622 12.269C12.2564 12.7221 11.652 13.3179 11.1873 14.0183C10.7227 14.7187 10.4081 15.5085 10.2633 16.3377C10.0059 17.7218 10.2123 19.1527 10.85 20.4064C10.4034 21.1045 10.1039 21.8872 9.96995 22.7061C9.82758 23.5461 9.85281 24.4062 10.0442 25.2363C10.2356 26.0664 10.5893 26.85 11.0847 27.5414C13.1383 30.5488 17.304 31.4333 20.2963 29.5463L25.5181 26.1852C26.224 25.732 26.8284 25.1363 27.293 24.4359C27.7576 23.7354 28.0723 22.9456 28.217 22.1165C28.4744 20.7323 28.2681 19.3015 27.6303 18.0477C28.0769 17.3496 28.3764 16.567 28.5104 15.748C28.6528 14.908 28.6275 14.048 28.4361 13.2179C28.2448 12.3878 27.8911 11.6042 27.3956 10.9127Z" fill="#F1F1F1"/>
<path d="M17.7147 27.8363C16.8842 28.0639 16.0039 28.0274 15.1949 27.7317C14.3859 27.4361 13.6879 26.8958 13.1969 26.1852C12.8994 25.7617 12.689 25.2828 12.5782 24.7765C12.4674 24.2702 12.4583 23.7467 12.5515 23.2368C12.5802 23.0771 12.6194 22.9196 12.6689 22.7651L12.7862 22.4703L13.0796 22.6472C13.7025 23.0961 14.3969 23.4351 15.1331 23.6496L15.3091 23.7086V23.9444C15.2788 24.2127 15.3409 24.4833 15.4852 24.711C15.6255 24.9314 15.8316 25.1015 16.074 25.1968C16.3165 25.2922 16.5827 25.3079 16.8346 25.2417C16.961 25.2031 17.08 25.1433 17.1866 25.0648L22.4085 21.7037C22.6514 21.539 22.82 21.2848 22.8779 20.9961C22.9381 20.6895 22.8748 20.3713 22.7018 20.1116C22.5615 19.8912 22.3554 19.7211 22.1129 19.6258C21.8705 19.5304 21.6043 19.5147 21.3524 19.5809C21.2465 19.6251 21.1477 19.6847 21.059 19.7578L19.0642 20.9961C18.7199 21.2119 18.3436 21.3712 17.9494 21.4678C17.1273 21.6823 16.2596 21.6391 15.4626 21.344C14.6656 21.0489 13.9774 20.516 13.4903 19.8167C13.1928 19.3933 12.9824 18.9143 12.8716 18.408C12.7607 17.9017 12.7517 17.3783 12.8449 16.8684C12.9382 16.3734 13.1323 15.9031 13.415 15.4871C13.6977 15.071 14.0629 14.7182 14.4877 14.4507L19.7096 11.0896C20.0357 10.8794 20.3918 10.7203 20.7657 10.6179C21.5961 10.3902 22.4764 10.4267 23.2854 10.7224C24.0944 11.0181 24.7924 11.5583 25.2834 12.269C25.581 12.6924 25.7913 13.1714 25.9022 13.6777C26.013 14.184 26.022 14.7074 25.9288 15.2173C25.9 15.377 25.8608 15.5345 25.8115 15.689L25.6941 15.9839L25.4008 15.807C24.7779 15.358 24.0834 15.019 23.3472 14.8045L23.1712 14.7456V14.5097C23.2016 14.2415 23.1394 13.9709 22.9952 13.7431C22.8549 13.5227 22.6487 13.3527 22.4063 13.2573C22.1639 13.162 21.8976 13.1463 21.6457 13.2124C21.5193 13.2511 21.4003 13.3109 21.2937 13.3893L16.0719 16.7505C15.829 16.9152 15.6603 17.1694 15.6025 17.4581C15.5422 17.7647 15.6055 18.0828 15.7785 18.3426C15.9188 18.563 16.125 18.733 16.3674 18.8284C16.6098 18.9237 16.8761 18.9394 17.128 18.8733C17.2338 18.829 17.3327 18.7694 17.4213 18.6964L19.4162 17.4581C19.7604 17.2422 20.1368 17.083 20.531 16.9863C21.3531 16.7718 22.2208 16.8151 23.0177 17.1102C23.8147 17.4053 24.5029 17.9381 24.9901 18.6374C25.2876 19.0609 25.498 19.5398 25.6088 20.0461C25.7196 20.5524 25.7287 21.0759 25.6355 21.5858C25.5421 22.0808 25.3481 22.551 25.0653 22.9671C24.7826 23.3831 24.4174 23.7359 23.9926 24.0034L18.7708 27.3645C18.4447 27.5748 18.0885 27.7339 17.7147 27.8363Z" fill="#1E1E1E"/>
</g>
<defs>
<clipPath id="clip0_2_41">
<rect width="22.6201" height="22.6201" fill="white" transform="translate(7.93012 7.91703)"/>
</clipPath>
</defs>
</svg>
