<svg width="40" height="56" viewBox="0 0 40 56" fill="none" xmlns="http://www.w3.org/2000/svg">
<path d="M31.1023 0.548857C31.5067 0.74169 31.8121 1.10593 31.9513 1.52374C32.0236 1.74871 32.037 6.40617 32.0236 16.8969L31.9942 31.9593L29.3454 27.8884L26.6805 23.8148V12.8795C26.6805 5.79018 26.71 1.81567 26.7475 1.62016C26.8734 1.17289 27.1787 0.797932 27.5858 0.562246C27.9179 0.393517 28.0464 0.380127 29.3722 0.380127C30.6122 0.380127 30.8211 0.393519 31.0996 0.548857H31.1023Z" fill="#F1F1F1"/>
<path d="M22.8587 36.523L29.707 45.771L36.6945 55.2367L39.6165 53.5701L32.8218 43.2883C29.0856 37.6372 21.4848 26.1181 15.9167 17.6762C12.5126 12.4724 9.05235 7.28466 5.58135 2.1103C5.13409 1.62018 4.85287 1.55322 3.15219 1.55322C1.70326 1.55322 1.56399 1.58 1.21314 1.74873C0.977455 1.87461 0.76855 2.04334 0.599821 2.24957L0.334675 2.58435L0.305216 19.3796L0.291824 36.1749L0.473946 36.5525C0.599823 36.8016 0.795336 37.0132 1.03102 37.1658L1.40865 37.4015H2.85758C4.12439 37.4015 4.36275 37.3747 4.6279 37.2488C4.96268 37.0935 5.21443 36.815 5.36709 36.4802C5.51856 36.2038 5.51974 35.7192 5.54852 23.9269L5.54921 23.646C5.56528 16.7576 5.60278 11.1092 5.63224 11.1092C8.54885 15.3194 11.4199 19.5617 14.2803 23.8148L22.8587 36.523Z" fill="#F1F1F1"/>
</svg>
